<svg width="221" height="174" viewBox="0 0 221 174" fill="none" xmlns="http://www.w3.org/2000/svg">
<path d="M111.934 168.852C153.422 167.978 186.917 160.771 186.748 152.756C186.578 144.741 152.808 138.952 111.319 139.827C69.8311 140.702 36.3357 147.908 36.5053 155.923C36.6749 163.939 70.4453 169.727 111.934 168.852Z" fill="#6C63FF"/>
<path opacity="0.7" d="M111.934 168.852C153.422 167.978 186.917 160.771 186.748 152.756C186.578 144.741 152.808 138.952 111.319 139.827C69.8311 140.702 36.3357 147.908 36.5053 155.923C36.6749 163.939 70.4453 169.727 111.934 168.852Z" fill="white"/>
<path d="M194.922 105.925C194.922 105.925 218.611 83.6124 205.595 53.9844C201.98 45.7518 196.132 38.6964 188.86 33.3915C172.561 21.5204 131.353 -1.96706 69.3486 7.1038C62.6882 8.05285 56.3157 10.4416 50.6758 14.1031C41.5755 20.0629 31.929 31.0091 36.0311 49.7751C37.4811 56.3999 37.1543 63.3177 34.7548 69.6698C32.3859 75.9659 27.8983 83.6838 19.546 92.0132C19.546 92.0132 1.74878 109.174 19.0635 124.026C22.7634 127.167 27.1388 129.414 31.8499 130.592C53.448 136.104 140.744 154.408 194.922 105.925Z" fill="#6C63FF"/>
<path opacity="0.7" d="M194.922 105.925C194.922 105.925 218.611 83.6124 205.595 53.9844C201.98 45.7518 196.132 38.6964 188.86 33.3915C172.561 21.5204 131.353 -1.96706 69.3486 7.1038C62.6882 8.05285 56.3157 10.4416 50.6758 14.1031C41.5755 20.0629 31.929 31.0091 36.0311 49.7751C37.4811 56.3999 37.1543 63.3177 34.7548 69.6698C32.3859 75.9659 27.8983 83.6838 19.546 92.0132C19.546 92.0132 1.74878 109.174 19.0635 124.026C22.7634 127.167 27.1388 129.414 31.8499 130.592C53.448 136.104 140.744 154.408 194.922 105.925Z" fill="white"/>
<path d="M71.495 158.279C71.495 158.279 72.4497 159.346 72.437 159.741C71.1126 160.043 69.7666 160.239 68.4114 160.33C66.6092 160.404 63.8881 159.729 63.4107 159.51C62.9334 159.29 63.0712 158.687 63.0712 158.687C63.0712 158.687 64.5492 158.019 65.6239 158.024C66.6986 158.029 69.6877 158.23 71.495 158.279Z" fill="#F1F1F1"/>
<path d="M73.328 159.66C73.328 159.66 72.9987 158.697 72.3555 158.248C72.3555 158.248 74.5712 157.874 75.5744 158.608C76.5776 159.341 74.2189 159.578 73.328 159.66Z" fill="#F1F1F1"/>
<path d="M85.8389 155.779C85.8389 155.779 86.7042 154.76 86.6557 154.358C85.3028 154.018 83.9265 153.78 82.5383 153.644C80.7105 153.509 78.0251 154.087 77.5631 154.291C77.1011 154.495 77.3078 155.099 77.3078 155.099C77.3078 155.099 78.8599 155.812 79.9371 155.843C81.0143 155.874 84.0163 155.759 85.8389 155.779Z" fill="#F1F1F1"/>
<path d="M87.5567 154.467C87.5567 154.467 87.3014 155.415 86.7041 155.838C86.7041 155.838 88.9734 156.286 89.9205 155.583C90.8675 154.88 88.468 154.579 87.5567 154.467Z" fill="#F1F1F1"/>
<path d="M43.9722 157.632V156.358C44.3274 156.407 44.6668 156.536 44.9652 156.735C45.6212 157.211 44.8426 157.481 43.9722 157.632Z" fill="#F1F1F1"/>
<path d="M54.4278 155.601C54.4278 155.601 55.209 154.508 55.1273 154.118C53.7508 153.888 52.3593 153.758 50.9639 153.731C49.1336 153.731 46.5018 154.538 46.0602 154.778C45.6186 155.017 45.8585 155.603 45.8585 155.603C45.8585 155.603 47.4642 156.19 48.5388 156.133C49.6135 156.077 52.6103 155.728 54.4278 155.601Z" fill="#F1F1F1"/>
<path d="M56.0386 154.154C56.0386 154.154 55.8727 155.117 55.2983 155.588C55.2983 155.588 57.5957 155.843 58.4866 155.079C59.3775 154.314 56.9525 154.194 56.0386 154.154Z" fill="#F1F1F1"/>
<path d="M101.042 159.102C101.042 159.102 102.063 160.096 102.091 160.491C100.792 160.889 99.4645 161.187 98.1194 161.38C96.3325 161.586 93.5603 161.125 93.0702 160.931C92.5801 160.738 92.6695 160.136 92.6695 160.136C92.6695 160.136 94.0939 159.372 95.1583 159.285C96.2228 159.199 99.2349 159.196 101.042 159.102Z" fill="#F1F1F1"/>
<path d="M102.972 160.345C102.972 160.345 102.571 159.408 101.897 159.01C101.897 159.01 104.077 158.47 105.134 159.127C106.191 159.785 103.855 160.198 102.972 160.345Z" fill="#F1F1F1"/>
<path d="M114.464 156.35C114.464 156.35 115.391 155.374 115.365 154.979C114.035 154.558 112.675 154.236 111.296 154.016C109.481 153.761 106.765 154.194 106.293 154.368C105.821 154.541 105.979 155.158 105.979 155.158C105.979 155.158 107.485 155.963 108.56 156.057C109.635 156.151 112.647 156.223 114.464 156.35Z" fill="#F1F1F1"/>
<path d="M116.264 155.142C116.264 155.142 115.963 156.075 115.33 156.46C115.33 156.46 117.571 157.041 118.556 156.404C119.541 155.767 117.168 155.308 116.264 155.142Z" fill="#F1F1F1"/>
<path d="M129.908 158.279C129.908 158.279 130.86 159.346 130.85 159.741C129.525 160.043 128.178 160.24 126.822 160.33C125.02 160.404 122.296 159.729 121.819 159.51C121.341 159.29 121.482 158.687 121.482 158.687C121.482 158.687 122.957 158.019 124.034 158.024C125.112 158.029 128.098 158.23 129.908 158.279Z" fill="#F1F1F1"/>
<path d="M131.738 159.66C131.738 159.66 131.409 158.697 130.766 158.248C130.766 158.248 132.981 157.874 133.987 158.608C134.993 159.341 132.629 159.578 131.738 159.66Z" fill="#F1F1F1"/>
<path d="M143.46 157.466C143.46 157.466 144.241 156.37 144.162 155.981C142.785 155.75 141.392 155.621 139.996 155.593C138.166 155.609 135.536 156.401 135.092 156.641C134.648 156.88 134.893 157.466 134.893 157.466C134.893 157.466 136.496 158.052 137.571 157.996C138.646 157.94 141.63 157.601 143.46 157.466Z" fill="#F1F1F1"/>
<path d="M145.061 156.029C145.061 156.029 144.892 156.992 144.32 157.464C144.32 157.464 146.618 157.718 147.506 156.954C148.394 156.19 145.972 156.067 145.061 156.029Z" fill="#F1F1F1"/>
<path d="M158.684 159.217C158.684 159.217 159.639 160.282 159.626 160.679C158.301 160.979 156.954 161.176 155.598 161.268C153.796 161.342 151.072 160.666 150.598 160.445C150.123 160.223 150.258 159.622 150.258 159.622C150.258 159.622 151.736 158.954 152.811 158.959C153.885 158.964 156.875 159.173 158.684 159.217Z" fill="#F1F1F1"/>
<path d="M160.517 160.598C160.517 160.598 160.188 159.632 159.542 159.186C159.542 159.186 161.758 158.811 162.763 159.545C163.769 160.279 161.405 160.524 160.517 160.598Z" fill="#F1F1F1"/>
<path d="M171.616 156.74V158.46C169.799 158.608 167.3 158.895 166.337 158.941C165.26 158.997 163.657 158.414 163.657 158.414C163.657 158.414 163.402 157.828 163.859 157.588C164.316 157.349 166.922 156.554 168.762 156.541C169.717 156.549 170.67 156.615 171.616 156.74Z" fill="#F1F1F1"/>
<path d="M160.976 154.352C160.999 153.28 160.826 152.213 160.466 151.203C160.287 150.693 154.301 152.956 153.717 153.147C151.741 153.799 150.283 154.944 148.581 156.161C147.774 156.74 146.955 157.326 146.028 157.657C145.101 157.988 143.986 158.057 143.016 158.394C142.046 158.73 141.078 159.471 140.974 160.501C143.036 161.158 145.262 161.658 147.355 161.089C149.377 160.541 151.001 159.074 152.854 158.101C154.142 157.445 155.517 156.976 156.938 156.709C156.938 157.109 156.958 157.512 156.971 157.912C158.023 157.911 159.07 157.76 160.08 157.466C160.214 157.436 160.34 157.377 160.448 157.293C160.549 157.188 160.622 157.06 160.662 156.921C160.957 156.099 161.065 155.221 160.976 154.352Z" fill="#6C63FF"/>
<path d="M116.146 152.584C115.25 152.584 114.308 152.548 113.509 152.959C112.534 153.468 111.978 154.487 111.49 155.474C117.479 156.592 123.667 155.871 129.236 153.407C129.285 153.97 129.211 154.537 129.019 155.068C130.486 155.219 131.962 155.267 133.436 155.211C133.592 155.218 133.749 155.188 133.892 155.124C134.063 155.014 134.195 154.852 134.27 154.663C134.662 153.886 134.933 153.055 135.074 152.197C135.147 151.9 135.13 151.589 135.026 151.302C134.824 150.966 134.496 150.723 134.115 150.627C131.544 149.718 128.769 150.831 126.265 151.435C122.952 152.231 119.554 152.617 116.146 152.584Z" fill="#6C63FF"/>
<path d="M105.494 93.3534C102.96 93.2821 100.426 93.2651 97.8921 93.3025C97.5896 93.2701 97.2863 93.355 97.0446 93.5394C96.7894 93.807 96.8302 94.2401 96.9349 94.5994C97.4199 96.2683 99.3905 98.8571 101.389 98.2558C103.452 97.6392 105.078 95.374 105.494 93.3534Z" fill="#F7A48B"/>
<path d="M92.2639 90.3697L103.034 98.6532C103.149 98.7425 103.244 98.8558 103.311 98.9854C103.378 99.115 103.415 99.2577 103.421 99.4034C103.427 99.5491 103.401 99.6943 103.345 99.8288C103.288 99.9633 103.203 100.084 103.095 100.182C102.916 100.345 102.685 100.438 102.443 100.443C102.202 100.449 101.966 100.367 101.78 100.213L91.2837 91.5036L92.2639 90.3697Z" fill="#252525"/>
<path d="M106.518 89.9824C105.589 90.3009 104.307 90.6653 103.488 91.208C102.668 91.7507 101.933 90.5812 101.096 90.3315C100.2 90.0767 99.4087 90.2576 98.4897 90.3901C97.3333 90.5583 96.468 91.1545 95.5311 91.8603C94.5879 92.5652 93.511 93.0715 92.3658 93.3483C91.7609 95.323 96.5854 93.8707 97.198 93.7586C97.849 93.6388 98.3238 93.6108 98.9364 93.8987C100.379 94.579 101.014 94.7115 102.668 94.5586C103.707 95.2389 105.022 95.7715 106.109 94.6402C106.73 93.9955 107.896 93.3662 108.42 92.6986C108.721 92.3036 108.751 92.5712 108.448 91.8323C108.07 90.9048 107.353 90.5099 106.518 89.9824Z" fill="#F9B499"/>
<path d="M96.7715 93.5776C96.1257 94.0872 95.2144 94.421 94.3975 94.7803C94.2829 94.8292 94.1863 94.9125 94.1213 95.0187C94.0562 95.1249 94.026 95.2486 94.0347 95.3728C94.0434 95.4969 94.0906 95.6153 94.1698 95.7114C94.2491 95.8075 94.3563 95.8766 94.4767 95.9091C95.9011 96.2836 99.1276 94.8644 98.8162 93.3483C98.3108 93.1088 97.2004 93.2362 96.7715 93.5776Z" fill="#F9B499"/>
<path d="M95.6254 95.5498C95.3038 96.0135 95.2093 97.0022 95.6254 97.4328C96.9528 98.8036 99.2604 96.5945 100.006 95.6008C101.499 93.6082 99.1481 94.072 97.9994 94.6019C97.3204 94.9001 96.5367 95.2186 95.6254 95.5498Z" fill="#F9B499"/>
<path d="M96.8562 97.257C96.7643 100.439 101.875 97.471 101.451 95.4173C101.104 93.7662 99.6207 95.5218 99.1051 95.9142C98.5895 96.3066 97.1217 96.5945 96.8562 97.257Z" fill="#F9B499"/>
<path d="M98.8188 98.0749C99.6025 100.307 102.778 97.7564 102.423 96.0365C102.275 95.323 101.864 95.0427 101.211 95.5855C100.866 95.8734 100.721 96.3804 100.422 96.7117C100.016 97.1754 98.8342 97.4684 98.8188 98.0749Z" fill="#F9B499"/>
<path d="M91.8092 91.8501C91.8092 91.8501 76.1026 90.413 70.9487 77.8107L72.7356 74.9161C72.7356 74.9161 84.8991 75.6601 92.6286 90.5888L91.8092 91.8501Z" fill="#6C63FF"/>
<path d="M72.4956 78.1597C72.4956 78.1597 81.9405 81.3396 89.7338 90.3213C89.7363 90.3213 77.2232 87.8599 72.4956 78.1597Z" fill="#E5E5E5"/>
<g opacity="0.3">
<path d="M77.8997 77.1176C77.3662 76.8628 76.8097 76.6309 76.2175 76.4144L75.0815 78.2667C75.661 78.4782 76.2558 78.705 76.8684 78.9471L77.8997 77.1176Z" fill="white"/>
<path d="M78.4152 77.375L77.3584 79.1585C78.7823 79.7396 80.167 80.412 81.5039 81.1715L82.0528 79.9229C80.9524 78.9243 79.7302 78.0682 78.4152 77.375Z" fill="white"/>
<path d="M82.5557 81.811C83.1307 82.1781 83.6846 82.577 84.2149 83.006L84.6284 82.4964C84.0822 81.8951 83.5589 81.3498 83.0432 80.8428L82.5557 81.811Z" fill="white"/>
</g>
<path d="M111.595 93.4146C110.735 93.8656 109.729 94.0796 108.871 94.528C108.075 92.7474 107.073 91.0655 105.887 89.5161L108.029 88.26C109.137 89.9748 110.49 91.6998 111.595 93.4146Z" fill="white"/>
<path d="M139.476 105.421C132.389 109.033 124.278 110.118 116.489 108.496C117.357 101.428 116.422 94.2783 115.493 87.2178C114.62 80.6151 113.749 74.0141 112.879 67.4148C112.519 64.691 111.373 61.7277 111.164 58.9886C110.955 56.2495 112.019 53.062 114.612 52.1422C116.91 51.3268 119.429 52.6059 121.331 54.1398C127.802 59.3581 131.031 67.5346 133.454 75.4792C136.405 85.1412 138.112 95.4097 139.476 105.421Z" fill="#6C63FF"/>
<path opacity="0.2" d="M139.476 105.421C132.389 109.033 124.278 110.118 116.489 108.496C117.357 101.428 116.422 94.2783 115.493 87.2178C114.62 80.6151 113.749 74.0141 112.879 67.4148C112.519 64.691 111.373 61.7277 111.164 58.9886C110.955 56.2495 112.019 53.062 114.612 52.1422C116.91 51.3268 119.429 52.6059 121.331 54.1398C127.802 59.3581 131.031 67.5346 133.454 75.4792C136.405 85.1412 138.112 95.4097 139.476 105.421Z" fill="black"/>
<path d="M135.922 94.3319C134.039 102.88 132.906 111.576 132.535 120.321C132.417 123.068 132.376 125.825 132.047 128.554C131.613 132.154 130.687 135.688 129.763 139.182C128.741 143.089 127.712 146.996 126.674 150.902C128.736 151.476 130.836 151.902 132.959 152.176C134.515 152.386 136.09 152.415 137.653 152.261C141.975 151.751 145.852 149.137 150.186 148.757C150.163 141.666 150.141 134.57 149.753 127.489C149.472 122.503 149.016 117.53 148.384 112.57C147.899 108.782 147.302 104.993 146.263 101.316C145.811 99.7209 145.257 98.1131 144.221 96.8085C142.421 94.5153 138.725 93.4961 135.922 94.3319Z" fill="#252525"/>
<path opacity="0.2" d="M135.922 94.3319C134.039 102.88 132.906 111.576 132.535 120.321C132.417 123.068 132.376 125.825 132.047 128.554C131.613 132.154 130.687 135.688 129.763 139.182C128.741 143.089 127.712 146.996 126.674 150.902C128.736 151.476 130.836 151.902 132.959 152.176C134.515 152.386 136.09 152.415 137.653 152.261C141.975 151.751 145.852 149.137 150.186 148.757C150.163 141.666 150.141 134.57 149.753 127.489C149.472 122.503 149.016 117.53 148.384 112.57C147.899 108.782 147.302 104.993 146.263 101.316C145.811 99.7209 145.257 98.1131 144.221 96.8085C142.421 94.5153 138.725 93.4961 135.922 94.3319Z" fill="black"/>
<path opacity="0.2" d="M148.841 116.403C148.7 115.123 148.548 113.849 148.384 112.581C147.899 108.792 147.302 105.003 146.263 101.326C145.811 99.7311 145.257 98.1233 144.221 96.8187C142.414 94.5255 138.717 93.5063 135.914 94.342C135.011 98.4494 134.28 102.591 133.722 106.766C137.964 111.075 143.19 114.201 148.841 116.403Z" fill="black"/>
<path d="M165.385 149.86L160.415 152.067C159.491 152.477 158.567 152.887 157.607 153.213C155.289 154.008 152.824 154.282 150.388 154.016C149.523 151.213 148.657 148.41 147.789 145.608C147.169 143.602 146.549 141.595 146.128 139.541C145.591 136.942 145.377 134.287 145.163 131.642L143.47 110.675C148.831 105.523 154.727 101.622 161.709 99.0635C162.368 98.8087 163.075 98.5921 163.751 98.745C165.204 104.929 165.249 111.361 163.881 117.564C163.427 119.603 162.827 121.621 162.559 123.695C162.123 127.074 162.577 130.496 163.034 133.869C163.726 139.039 164.688 144.69 165.385 149.86Z" fill="#252525"/>
<path opacity="0.2" d="M163.641 118.568C163.723 118.235 163.802 117.901 163.876 117.564C165.25 111.362 165.211 104.931 163.764 98.745C163.08 98.5921 162.373 98.8214 161.722 99.0635C154.74 101.611 148.838 105.523 143.483 110.675L143.993 116.981C150.431 117.987 157.068 118.719 163.641 118.568Z" fill="black"/>
<path d="M123.72 79.3318C124.371 84.4737 123.536 90.3315 120.562 91.817C117.589 93.3025 114.127 93.8554 110.834 94.2987C109.532 92.2094 108.19 90.3162 106.885 88.2269C110.372 85.1947 115.59 82.5448 116.409 78.0018C116.994 74.7338 116.861 71.3781 116.019 68.1665C119.623 73.6931 120.662 73.4765 123.72 79.3318Z" fill="#252525"/>
<path opacity="0.2" d="M123.72 79.3318C124.371 84.4737 123.536 90.3315 120.562 91.817C117.589 93.3025 114.127 93.8554 110.834 94.2987C109.532 92.2094 108.19 90.3162 106.885 88.2269C110.372 85.1947 115.59 82.5448 116.409 78.0018C116.994 74.7338 116.861 71.3781 116.019 68.1665C119.623 73.6931 120.662 73.4765 123.72 79.3318Z" fill="black"/>
<path d="M135.07 89.8703C133.283 91.5953 130.768 92.4565 128.282 92.3979C126.204 86.721 122.625 81.7422 119.391 76.6309C116.157 71.5197 113.18 66.0211 112.542 60.0104C112.381 58.4816 111.194 57.126 111.072 55.5921C110.949 54.0582 111.475 52.374 112.764 51.5154C114.053 50.6567 115.904 50.8707 117.267 51.6759C118.63 52.481 119.629 53.7652 120.547 55.0545C127.843 65.2975 131.657 77.7826 135.07 89.8703Z" fill="#252525"/>
<path d="M119.557 70.6992C119.276 65.4605 118.932 59.9976 116.297 55.4571C115.72 54.4634 114.977 53.4799 113.903 53.0722C109.193 51.2886 112.019 59.3683 112.703 61.1035C114.158 64.8185 116.513 68.1154 119.557 70.6992Z" fill="white"/>
<path d="M110.385 52.6288C109.626 55.0656 109.48 57.6518 109.961 60.1582C111.325 67.1855 113.612 74.6817 114.526 81.7804C116.632 71.8993 115.102 60.6576 110.487 51.6682C110.482 51.9908 110.448 52.3123 110.385 52.6288Z" fill="#6C63FF"/>
<path opacity="0.4" d="M110.385 52.6288C109.626 55.0656 109.48 57.6518 109.961 60.1582C111.325 67.1855 113.612 74.6817 114.526 81.7804C116.632 71.8993 115.102 60.6576 110.487 51.6682C110.482 51.9908 110.448 52.3123 110.385 52.6288Z" fill="black"/>
<path d="M113.438 36.2758C113.438 36.2758 109.053 40.322 106.579 40.0749C104.106 39.8277 105.208 34.8005 105.208 34.8005C105.208 34.8005 110.735 34.3138 113.438 36.2758Z" fill="#6C63FF"/>
<path opacity="0.2" d="M113.438 36.2758C113.438 36.2758 109.053 40.322 106.579 40.0749C104.106 39.8277 105.208 34.8005 105.208 34.8005C105.208 34.8005 110.735 34.3138 113.438 36.2758Z" fill="black"/>
<path d="M105.591 56.7754C110.384 54.0131 111.3 46.6384 107.636 40.3037C103.972 33.9689 97.1155 31.073 92.3222 33.8353C87.5288 36.5977 86.6134 43.9724 90.2775 50.3071C93.9415 56.6418 100.798 59.5378 105.591 56.7754Z" fill="#F9B499"/>
<path d="M96.0058 58.5223L95.8833 57.7579C96.0771 58.021 96.3241 58.2406 96.6082 58.4026L96.644 57.7401C96.7649 57.8643 96.9156 57.9557 97.0817 58.0056C97.2479 58.0555 97.424 58.0624 97.5936 58.0255C97.932 57.9462 98.2541 57.8092 98.5457 57.6203C98.7934 57.496 99.0132 57.3226 99.1915 57.1107C99.2776 57.0043 99.3294 56.8743 99.3404 56.738C99.3513 56.6016 99.3208 56.4651 99.2528 56.3463L100.062 57.0955L99.6025 55.745L100.169 56.3336C100.353 56.5493 100.581 56.7231 100.838 56.8432C100.968 56.8986 101.112 56.9117 101.249 56.8806C101.387 56.8494 101.511 56.7757 101.604 56.6699C101.859 56.3107 101.54 55.8317 101.211 55.5412C100.411 54.8501 99.4617 54.3529 98.4375 54.0886C97.4132 53.8243 96.3416 53.7999 95.3064 54.0175C94.9311 54.0965 93.9305 54.3029 93.7467 54.6876C93.6216 54.9424 93.9433 55.689 94.0505 55.9616C94.2564 56.4674 94.5285 56.9437 94.8597 57.3783C95.0435 57.6025 95.9803 58.2879 96.0058 58.5223Z" fill="#252525"/>
<path d="M92.2866 41.1705C92.7461 42.2483 93.4277 43.3185 94.4972 43.8C95.1916 44.1109 95.9752 44.1415 96.7359 44.1415C97.6498 44.1415 98.5628 44.1083 99.4749 44.0421C100.751 45.4282 101.846 46.8882 102.556 48.6285C103.25 48.2157 104.044 47.6781 104.741 47.2653C104.021 45.7034 103.416 44.0319 102.699 42.4725C104.687 43.9325 107.549 44.2714 109.869 43.4382C108.353 40.2889 106.446 37.3587 103.963 34.9075L92.2866 41.1705Z" fill="#252525"/>
<path d="M103.564 43.7185C102.93 42.8604 102.406 41.9255 102.007 40.9361C101.79 40.4035 102.155 39.6901 102.398 39.1678C102.512 38.9018 102.684 38.6647 102.902 38.4738C103.119 38.2829 103.377 38.143 103.656 38.0645C103.923 38.0352 104.192 38.106 104.409 38.2632C105.397 39.2468 105.665 40.7246 105.813 42.1107C105.895 42.6709 105.895 43.2399 105.813 43.8C105.73 44.3659 105.427 44.8764 104.971 45.2218C104.434 44.7888 103.96 44.2827 103.564 43.7185Z" fill="#F7B595"/>
<path d="M106.571 35.7484C106.571 35.7484 111.227 35.5394 113.438 36.2758C113.438 36.2758 111.843 33.2182 104.593 33.3329C97.3434 33.4475 106.571 35.7484 106.571 35.7484Z" fill="#6C63FF"/>
<path d="M106.571 35.7484C98.635 36.7497 91.1276 42.5897 88.8302 50.2388C88.0925 49.984 87.513 49.2757 86.9106 48.7737C85.0982 47.2678 82.5353 46.1136 82.3005 43.772C81.9227 40.0035 82.8697 36.2427 83.8066 32.5736C86.104 30.5581 88.5826 28.1299 91.5871 27.5413C95.1302 26.8508 98.6937 28.3566 101.987 29.8345C103.24 30.3976 104.23 31.5034 105.012 32.6016C105.152 32.8029 106.701 35.7305 106.571 35.7484Z" fill="#6C63FF"/>
<path opacity="0.3" d="M106.571 35.7484C98.635 36.7497 91.1276 42.5897 88.8302 50.2388C88.0925 49.984 87.513 49.2757 86.9106 48.7737C85.0982 47.2678 82.5353 46.1136 82.3005 43.772C81.9227 40.0035 82.8697 36.2427 83.8066 32.5736C86.104 30.5581 88.5826 28.1299 91.5871 27.5413C95.1302 26.8508 98.6937 28.3566 101.987 29.8345C103.24 30.3976 104.23 31.5034 105.012 32.6016C105.152 32.8029 106.701 35.7305 106.571 35.7484Z" fill="white"/>
<path d="M101.987 29.837C98.6938 28.3566 95.1302 26.8508 91.5871 27.5438C90.0224 27.8496 88.6031 28.6573 87.2757 29.6434C86.5285 30.661 85.8692 31.7401 85.305 32.8691C84.044 35.4426 83.4007 38.4059 84.0057 41.2087C84.6924 44.381 86.8417 46.9621 89.1417 49.3164C90.8494 44.6001 94.5406 40.6533 99.0282 38.2199C97.95 34.9978 96.6641 31.8488 95.1787 28.7923C97.4149 29.6417 99.6391 30.5054 101.851 31.3836C102.967 31.8295 104.088 32.2882 105.155 32.8386C105.086 32.7162 105.037 32.6322 105.017 32.6041C104.231 31.506 103.24 30.4001 101.987 29.837Z" fill="#6C63FF"/>
<path d="M95.1787 28.7923C96.6641 31.8488 97.9499 34.9978 99.0281 38.2199C101.367 36.9377 103.925 36.1013 106.571 35.7535C106.681 35.7382 105.55 33.58 105.149 32.8436C104.082 32.2933 102.962 31.8244 101.846 31.3887C99.6374 30.5071 97.4149 29.6417 95.1787 28.7923Z" fill="#6C63FF"/>
<path opacity="0.2" d="M94.1424 41.8534C92.9963 39.4175 91.0307 37.4683 88.986 35.7127C88.1207 34.9661 87.1558 34.2145 86.0173 34.1126C85.0932 34.031 84.0083 34.426 83.582 35.249C85.5323 36.1994 87.2349 37.0886 88.9682 38.4696C89.8233 39.1525 90.6504 39.871 91.5591 40.4825C91.9854 40.7679 93.9791 41.5017 94.1424 41.8534Z" fill="black"/>
<path d="M86.9106 48.7737L87.6407 54.6672C87.6407 54.6672 89.499 52.4148 89.9228 47.4717C89.9228 47.4717 88.0211 47.5405 86.9106 48.7737Z" fill="#6C63FF"/>
<path d="M100.588 37.5498C98.6411 39.4256 96.3846 40.9522 93.9178 42.0623C91.9625 40.1564 89.7264 37.8377 87.1839 36.8313C86.5282 36.581 85.8603 36.3642 85.1826 36.1815L82.9312 35.542C82.8716 34.1079 83.1332 32.6786 83.697 31.3582C84.1462 30.2931 85.4557 29.6281 86.3798 28.935C88.4373 27.4062 91.8349 27.0673 94.3901 27.3578C95.5184 28.9911 100.432 36.0618 100.805 37.0835C100.802 36.9841 100.596 37.6594 100.588 37.5498Z" fill="#6C63FF"/>
<path opacity="0.3" d="M100.588 37.5498C98.6411 39.4256 96.3846 40.9522 93.9178 42.0623C91.9625 40.1564 89.7264 37.8377 87.1839 36.8313C86.5282 36.581 85.8603 36.3642 85.1826 36.1815L82.9312 35.542C82.8716 34.1079 83.1332 32.6786 83.697 31.3582C84.1462 30.2931 85.4557 29.6281 86.3798 28.935C88.4373 27.4062 91.8349 27.0673 94.3901 27.3578C95.5184 28.9911 100.432 36.0618 100.805 37.0835C100.802 36.9841 100.596 37.6594 100.588 37.5498Z" fill="white"/>
<path d="M94.3976 27.368C94.0275 27.3272 93.6318 27.2992 93.2387 27.2839C92.5696 27.3756 91.9078 27.5135 91.2578 27.6967C88.7562 28.4025 86.4078 29.9033 85.0778 32.1328C86.9861 30.3654 89.3345 29.1414 91.8781 28.5885C89.2744 30.3186 86.5839 32.1557 85.0063 34.8387C88.0696 34.9483 90.4206 37.481 92.3963 39.8226C92.9973 40.5127 93.5613 41.2339 94.0862 41.9833C96.4873 40.8801 98.6852 39.3813 100.588 37.5498C100.588 37.6517 100.774 37.0759 100.807 37.0835C100.409 36.0261 95.5208 28.9962 94.3976 27.368Z" fill="#6C63FF"/>
<path d="M114.426 56.117C112.415 55.5743 110.322 55.3399 108.244 55.1641C108.652 50.3008 109.059 45.4367 109.464 40.5717C110.74 40.4418 111.965 40.4392 113.193 40.8112C114.413 45.6091 114.71 51.1739 114.426 56.117Z" fill="white"/>
<path d="M112.09 46.9137C111.985 49.3623 111.947 51.8925 112.856 54.1653C113.765 56.4381 115.886 58.4051 118.342 58.3949L115.072 43.7796C114.86 42.8369 114.643 41.8737 114.148 41.0431C113.109 39.2926 111.763 39.2442 111.998 41.41C112.168 43.2396 112.199 45.0794 112.09 46.9137Z" fill="#402C35"/>
<path d="M113.451 40.5386C113.86 46.1917 113.899 51.8654 113.568 57.5235C120.925 65.5395 126.482 74.9696 130.27 85.1616C134.058 95.3536 136.512 105.981 138.949 116.573C144.889 117.241 150.102 113.878 154.776 110.157C159.45 106.437 163.84 102.085 169.454 100.032C167.815 92.798 166.179 85.3145 163.371 78.4553C161.295 73.4154 158.84 68.4009 154.98 64.5483C151.475 61.0525 147.008 58.7083 142.615 56.4202C132.953 51.388 123.102 45.5709 113.451 40.5386Z" fill="#6C63FF"/>
<mask id="mask0_18_594" style="mask-type:luminance" maskUnits="userSpaceOnUse" x="113" y="40" width="52" height="46">
<path style="mix-blend-mode:multiply" d="M163.371 78.4553C161.296 73.4154 158.84 68.4009 154.981 64.5483C151.476 61.0525 147.009 58.7083 142.615 56.4202C132.966 51.388 123.116 45.5709 113.464 40.5386C113.745 44.4014 113.85 48.2701 113.78 52.1447C114.51 53.3193 115.248 54.494 115.983 55.6813C117.466 58.0943 119.764 59.8779 122.018 61.6131C124.68 63.6642 127.378 65.7357 130.442 67.1091C132.813 68.1741 135.356 68.7984 137.811 69.6571C145.893 72.5253 152.838 77.9074 157.625 85.0113C159.885 83.6524 162.084 82.2026 164.221 80.6619C163.943 79.9229 163.66 79.184 163.371 78.4553Z" fill="url(#paint0_linear_18_594)"/>
</mask>
<g mask="url(#mask0_18_594)">
<path opacity="0.1" d="M163.371 78.4553C161.296 73.4154 158.84 68.4009 154.981 64.5483C151.476 61.0525 147.009 58.7083 142.615 56.4202C132.966 51.388 123.116 45.5709 113.464 40.5386C113.745 44.4014 113.85 48.2701 113.78 52.1447C114.51 53.3193 115.248 54.494 115.983 55.6813C117.466 58.0943 119.764 59.8779 122.018 61.6131C124.68 63.6642 127.378 65.7357 130.442 67.1091C132.813 68.1741 135.356 68.7984 137.811 69.6571C145.893 72.5253 152.838 77.9074 157.625 85.0113C159.885 83.6524 162.084 82.2026 164.221 80.6619C163.943 79.9229 163.66 79.184 163.371 78.4553Z" fill="white"/>
</g>
<path d="M124.348 70.9336C125.017 70.3985 125.073 69.4685 124.729 68.7398C124.384 68.0111 123.723 67.4352 123.074 66.8798C122.426 66.3243 121.762 65.7383 121.43 65.0121C121.099 64.2859 121.175 63.3508 121.847 62.8259C121.889 62.7917 121.944 62.7748 121.999 62.7786C122.053 62.7824 122.105 62.8065 122.143 62.8463C121.923 63.4884 121.704 64.1891 122.007 64.8057C122.357 65.5115 123.261 65.8555 123.998 66.2886C125.665 67.2671 126.699 69.1857 125.969 70.8011C125.902 70.9888 125.787 71.1562 125.637 71.2873C125.486 71.4184 125.304 71.5089 125.109 71.5502C124.685 71.5986 124.034 71.1859 124.348 70.9336Z" fill="#252525"/>
<path d="M120.764 72.4038C121.825 73.95 123.366 75.105 125.15 75.6907C125.632 75.873 126.151 75.9376 126.663 75.8793C126.918 75.8457 127.16 75.7456 127.364 75.589C127.568 75.4324 127.727 75.225 127.825 74.9875C128.032 74.3709 127.679 73.7135 127.33 73.1682C126.639 72.0828 125.916 71.0169 125.162 69.9705L120.764 72.4038Z" fill="#6C63FF"/>
<path opacity="0.3" d="M120.764 72.4038C121.825 73.95 123.366 75.105 125.15 75.6907C125.632 75.873 126.151 75.9376 126.663 75.8793C126.918 75.8457 127.16 75.7456 127.364 75.589C127.568 75.4324 127.727 75.225 127.825 74.9875C128.032 74.3709 127.679 73.7135 127.33 73.1682C126.639 72.0828 125.916 71.0169 125.162 69.9705L120.764 72.4038Z" fill="white"/>
<path d="M135.1 70.9336C134.589 71.3515 132.833 72.1006 132.233 71.8331C131.761 71.6241 131.682 70.903 131.169 70.7068C130.188 70.3374 128.999 71.1502 128.131 71.4712C127.35 71.7566 125.162 71.3744 125.305 72.3707C125.486 73.6447 128.2 73.8409 129.203 73.8001C128.001 74.2944 126.88 74.9212 125.683 75.3544C124.2 74.7556 123.455 73.9326 121.762 74.1415C121.492 75.2346 123.508 75.7442 124.118 76.4169C124.478 76.8144 124.573 77.2526 125.124 77.403C125.561 77.5202 126.717 77.403 127.166 77.2348C127.421 78.1623 128.172 78.1317 128.968 78.1342C129.374 78.1342 129.555 78.6821 129.949 78.7891C130.268 78.8783 130.671 78.6821 131.016 78.705C132.915 78.8375 133.941 76.8144 135.028 76.1723C135.771 75.7315 136.943 74.8983 137.732 74.7148C137.441 73.7313 135.159 71.1273 135.1 70.9336Z" fill="#F9B499"/>
<g opacity="0.3">
<path d="M125.162 69.9705L120.764 72.4038C120.964 72.6947 121.181 72.973 121.415 73.237C122.848 72.3979 124.311 71.6139 125.803 70.8852C125.591 70.5795 125.379 70.2711 125.162 69.9705Z" fill="white"/>
</g>
<path d="M139.731 74.6562C138.911 75.0257 137.977 75.5047 137.158 75.8716C136.226 74.1084 135.258 72.5057 134.327 70.7425L137.002 69.6902C138.028 71.27 138.705 73.0816 139.731 74.6562Z" fill="white"/>
<path d="M153.415 72.4471C149.2 74.8532 144.417 76.0901 139.562 76.0296C138.112 73.9275 136.443 71.9732 135.271 69.7055C137.704 68.0035 140.033 66.158 142.245 64.1789C146.794 65.3408 151.297 68.2659 153.415 72.4471Z" fill="#252525"/>
<path d="M166.993 76.6335L162.322 65.5956C161.066 62.6221 159.736 59.5492 157.324 57.4012C154.26 54.68 149.982 53.8901 146.347 51.9816C140.841 49.0846 136.964 43.665 131.368 40.9437C125.461 38.0721 118.679 38.6633 112.136 39.257C114.663 44.0829 112.478 50.2337 114.551 55.2711C115.955 58.6778 119.161 61.0831 122.61 62.4055C126.058 63.7279 129.783 64.0821 133.451 64.4897C137.119 64.8974 140.854 65.3764 144.211 66.8874C150.812 69.8482 155.057 76.2666 158.939 82.3614C161.839 81.0415 164.933 79.0337 166.993 76.6335Z" fill="#6C63FF"/>
<path opacity="0.4" d="M166.993 76.6335L162.322 65.5956C161.066 62.6221 159.736 59.5492 157.324 57.4012C154.26 54.68 149.982 53.8901 146.347 51.9816C140.841 49.0846 136.964 43.665 131.368 40.9437C125.461 38.0721 118.679 38.6633 112.136 39.257C114.663 44.0829 112.478 50.2337 114.551 55.2711C115.955 58.6778 119.161 61.0831 122.61 62.4055C126.058 63.7279 129.783 64.0821 133.451 64.4897C137.119 64.8974 140.854 65.3764 144.211 66.8874C150.812 69.8482 155.057 76.2666 158.939 82.3614C161.839 81.0415 164.933 79.0337 166.993 76.6335Z" fill="black"/>
<g opacity="0.2">
<path d="M119.429 56.5655C121.403 55.6338 123.257 54.4678 124.951 53.0926C123.562 51.9154 122.824 50.1649 122.143 48.4807L118.176 38.7983C116.17 38.8798 114.15 39.0531 112.154 39.2417C114.681 44.0676 112.496 50.2184 114.569 55.2558C115.973 58.6625 119.179 61.0678 122.628 62.3902C124.818 63.2234 127.121 63.6642 129.451 63.998C125.724 62.0717 122.273 59.7479 119.429 56.5655Z" fill="black"/>
</g>
<path d="M111.587 38.5333C111.695 42.8445 111.575 48.3202 112.825 52.4479C114.076 56.5757 116.524 59.4039 120.376 61.3659C118.937 59.7658 118.293 57.4369 118.237 55.2889C119.738 55.0571 121.277 54.2162 122.431 53.2327C120.389 48.4501 118.602 43.3465 117.596 38.2479L111.587 38.5333Z" fill="#6C63FF"/>
<path opacity="0.3" d="M111.587 38.5333C111.695 42.8445 111.575 48.3202 112.825 52.4479C114.076 56.5757 116.524 59.4039 120.376 61.3659C118.937 59.7658 118.293 57.4369 118.237 55.2889C119.738 55.0571 121.277 54.2162 122.431 53.2327C120.389 48.4501 118.602 43.3465 117.596 38.2479L111.587 38.5333Z" fill="white"/>
<path opacity="0.2" d="M127.506 59.6511C132.08 60.362 136.67 58.8867 141.232 58.1045C145.793 57.3222 151.006 57.3961 154.391 60.5454C151.072 59.7352 147.128 58.9198 143.708 59.1517C142.362 59.2434 141.032 59.4982 139.7 59.7148C135.588 60.3875 131.414 61.0958 127.506 59.6511Z" fill="black"/>
<path opacity="0.2" d="M149.865 55.6253C147.879 55.0894 145.796 55.0144 143.777 55.4061C140.369 56.0712 137.255 58.0484 133.791 58.237C138.324 57.3757 143.2 56.7235 147.736 55.8622C148.486 55.7195 149.155 55.3373 149.865 55.6253Z" fill="black"/>
<path opacity="0.2" d="M158.069 74.7658C155.942 71.0455 153.028 67.8327 149.53 65.351C151.572 66.1764 153.401 67.452 154.88 69.0824C156.358 70.7127 157.449 72.6556 158.069 74.7658Z" fill="black"/>
<mask id="mask1_18_594" style="mask-type:luminance" maskUnits="userSpaceOnUse" x="44" y="78" width="62" height="77">
<path style="mix-blend-mode:multiply" d="M72.4983 78.1597L44.521 154.115H105.642L89.7364 90.3213L72.4983 78.1597Z" fill="url(#paint1_linear_18_594)"/>
</mask>
<g mask="url(#mask1_18_594)">
<path opacity="0.5" d="M72.4983 78.1597L44.521 154.115H105.642L89.7364 90.3213L72.4983 78.1597Z" fill="#E5E5E5"/>
</g>
<path d="M98.4999 94.3879C97.5995 95.1074 96.5641 95.6402 95.4546 95.9549" stroke="#F7A48B" stroke-miterlimit="10"/>
<path d="M100.463 94.8262C99.479 96.0307 98.2825 97.0454 96.9326 97.8201" stroke="#F7A48B" stroke-miterlimit="10"/>
<path d="M98.9849 98.4418C98.9849 98.4418 100.795 97.3996 101.443 95.4173" stroke="#F7A48B" stroke-miterlimit="10"/>
<defs>
<linearGradient id="paint0_linear_18_594" x1="138.858" y1="65.8376" x2="144.246" y2="88.6492" gradientUnits="userSpaceOnUse">
<stop stop-color="white"/>
<stop offset="1"/>
</linearGradient>
<linearGradient id="paint1_linear_18_594" x1="91.4595" y1="88.074" x2="82.2787" y2="125.234" gradientUnits="userSpaceOnUse">
<stop stop-color="white"/>
<stop offset="1"/>
</linearGradient>
</defs>
</svg>
