<svg width="104" height="104" viewBox="0 0 104 104" fill="none" xmlns="http://www.w3.org/2000/svg">
<g clip-path="url(#clip0_212_2)">
<rect width="104" height="104" fill="#6C63FF"/>
<path d="M15.118 18.52H60.87V32.538H58.634L56.14 23.508C55.968 22.82 55.7673 22.3327 55.538 22.046C55.366 21.702 54.9933 21.5013 54.42 21.444C53.8467 21.3293 52.872 21.272 51.496 21.272H41.778V70.034C41.778 72.0407 41.864 73.216 42.036 73.56C42.208 73.904 42.7527 74.1333 43.67 74.248L48.4 74.764V77H27.674V74.764L32.404 74.248C33.3213 74.1333 33.866 73.904 34.038 73.56C34.21 73.216 34.296 72.0407 34.296 70.034V21.272H24.492C23.1733 21.272 22.1987 21.3293 21.568 21.444C20.9947 21.5013 20.5933 21.702 20.364 22.046C20.192 22.3327 20.02 22.82 19.848 23.508L17.354 32.538H15.118V18.52Z" fill="white"/>
<path d="M43.128 36.842V34.52H67.552C74.5467 34.52 79.9073 36.7847 83.634 41.314C87.3607 45.8433 89.224 52.236 89.224 60.492V66.942C89.224 75.2553 87.3607 81.6767 83.634 86.206C79.9073 90.7353 74.5467 93 67.552 93H43.128V90.764L47.858 90.248C48.7753 90.1333 49.32 89.904 49.492 89.56C49.664 89.216 49.75 88.0407 49.75 86.034V41.486C49.75 39.4793 49.664 38.304 49.492 37.96C49.32 37.616 48.7753 37.3867 47.858 37.272L43.128 36.842ZM67.38 37.272H57.232V90.248H67.38C70.476 90.248 73.0273 89.6747 75.034 88.528C77.0407 87.3813 78.5313 85.432 79.506 82.68C80.538 79.8707 81.054 76.058 81.054 71.242V56.192C81.054 51.4333 80.538 47.678 79.506 44.926C78.5313 42.174 77.0407 40.2247 75.034 39.078C73.0273 37.874 70.476 37.272 67.38 37.272Z" fill="white"/>
</g>
<defs>
<clipPath id="clip0_212_2">
<rect width="104" height="104" fill="white"/>
</clipPath>
</defs>
</svg>
